<svg width="600" height="300" viewBox="0 0 600 300" fill="none" xmlns="http://www.w3.org/2000/svg">
<path d="M178.605 64.0848C148.564 61.5889 144.972 113.171 140.282 150.598C135.593 188.024 117.992 220.917 91.7484 186.915C69.989 158.724 71.3271 108.782 72.4121 92.5044C72.8219 86.4515 71.1222 80.3866 67.361 75.6239C61.6469 68.3894 54.5223 67.7141 54.5223 67.7141C13.9088 65.9778 24.8307 129.003 37.7417 162.438C50.6527 195.874 82.7433 234.602 113.387 232.854C144.031 231.118 167.816 191.244 185.127 149.344C202.438 107.444 208.646 66.5807 178.605 64.0848Z" fill="white"/>
<path d="M440.694 80.1815C438.235 78.7588 435.511 78.0474 432.533 78.0474C429.556 78.0474 426.867 78.7588 424.468 80.1815C422.069 81.6043 420.092 83.5818 418.537 86.1139C417.115 88.5736 416.403 91.2986 416.403 94.2768C416.403 97.255 417.151 99.9438 418.634 102.536C420.056 104.996 421.997 106.973 424.468 108.469C426.867 109.891 429.556 110.603 432.533 110.603C435.511 110.603 438.235 109.855 440.694 108.372C443.154 106.877 445.095 104.936 446.529 102.536C447.952 100.137 448.663 97.3877 448.663 94.2768C448.663 91.166 447.952 88.5736 446.529 86.1139C445.034 83.5818 443.093 81.6164 440.694 80.1815Z" fill="white"/>
<path d="M418.176 235H446.83V118.946L418.176 119.055V235Z" fill="white"/>
<path d="M557.894 134.887C546.863 123.854 532.192 117.777 516.581 117.777C500.97 117.777 486.311 123.854 475.268 134.887C464.238 145.919 458.162 160.593 458.162 176.208C458.162 191.822 464.238 206.484 475.268 217.529C486.299 228.562 500.97 234.639 516.581 234.639C532.192 234.639 546.851 228.562 557.894 217.529C568.924 206.496 575 191.822 575 176.208C575 160.593 568.924 145.931 557.894 134.887ZM516.581 206.737C499.752 206.737 486.058 193.04 486.058 176.208C486.058 159.375 499.752 145.678 516.581 145.678C533.41 145.678 547.105 159.375 547.105 176.208C547.105 193.04 533.41 206.737 516.581 206.737Z" fill="white"/>
<path d="M249.537 117.994C233.938 117.994 219.267 124.071 208.224 135.103C197.194 146.136 191.118 160.81 191.118 176.424C191.118 192.039 197.194 206.701 208.224 217.746C219.255 228.778 233.926 234.855 249.537 234.855C263.834 234.855 277.336 229.755 287.993 220.41L271.779 197.405C266.197 203.325 258.289 207.027 249.501 207.027C233.697 207.027 220.689 195.053 219.062 179.68H279.94C279.94 179.68 279.94 179.704 279.94 179.716H307.86C307.92 178.631 307.956 177.534 307.956 176.437C307.956 160.834 301.88 146.16 290.85 135.115C279.819 124.083 265.148 118.006 249.537 118.006V117.994ZM224.378 159.038C229.899 151.14 239.049 145.967 249.417 145.967C259.784 145.967 268.934 151.14 274.455 159.038H224.378Z" fill="white"/>
<path d="M363.012 119.055C339.227 119.055 319.879 138.407 319.879 162.197V235H349.305V162.197C349.305 154.636 355.453 148.487 363.012 148.487C370.57 148.487 376.718 154.636 376.718 162.197V235H406.145V162.197C406.145 138.407 386.796 119.055 363.012 119.055Z" fill="white"/>
<path d="M178.605 64.0848C148.564 61.5889 144.972 113.171 140.282 150.598C135.593 188.024 117.992 220.917 91.7484 186.915C69.989 158.724 71.3271 108.782 72.4121 92.5044C72.8219 86.4515 71.1222 80.3866 67.361 75.6239C61.6469 68.3894 54.5223 67.7141 54.5223 67.7141C13.9088 65.9778 24.8307 129.003 37.7417 162.438C50.6527 195.874 82.7433 234.602 113.387 232.854C144.031 231.118 167.816 191.244 185.127 149.344C202.438 107.444 208.646 66.5807 178.605 64.0848Z" fill="url(#paint0_linear_68538_367)"/>
<path d="M440.694 80.1815C438.235 78.7588 435.511 78.0474 432.533 78.0474C429.556 78.0474 426.867 78.7588 424.468 80.1815C422.069 81.6043 420.092 83.5818 418.537 86.1139C417.115 88.5736 416.403 91.2986 416.403 94.2768C416.403 97.255 417.151 99.9438 418.634 102.536C420.056 104.996 421.997 106.973 424.468 108.469C426.867 109.891 429.556 110.603 432.533 110.603C435.511 110.603 438.235 109.855 440.694 108.372C443.154 106.877 445.095 104.936 446.529 102.536C447.952 100.137 448.663 97.3877 448.663 94.2768C448.663 91.166 447.952 88.5736 446.529 86.1139C445.034 83.5818 443.093 81.6164 440.694 80.1815Z" fill="url(#paint1_linear_68538_367)"/>
<path d="M418.176 235H446.83V118.946L418.176 119.055V235Z" fill="url(#paint2_linear_68538_367)"/>
<path d="M557.894 134.887C546.863 123.854 532.192 117.777 516.581 117.777C500.97 117.777 486.311 123.854 475.268 134.887C464.238 145.919 458.162 160.593 458.162 176.208C458.162 191.822 464.238 206.484 475.268 217.529C486.299 228.562 500.97 234.639 516.581 234.639C532.192 234.639 546.851 228.562 557.894 217.529C568.924 206.496 575 191.822 575 176.208C575 160.593 568.924 145.931 557.894 134.887ZM516.581 206.737C499.752 206.737 486.058 193.04 486.058 176.208C486.058 159.375 499.752 145.678 516.581 145.678C533.41 145.678 547.105 159.375 547.105 176.208C547.105 193.04 533.41 206.737 516.581 206.737Z" fill="url(#paint3_linear_68538_367)"/>
<path d="M249.537 117.994C233.938 117.994 219.267 124.071 208.224 135.103C197.194 146.136 191.118 160.81 191.118 176.424C191.118 192.039 197.194 206.701 208.224 217.746C219.255 228.778 233.926 234.855 249.537 234.855C263.834 234.855 277.336 229.755 287.993 220.41L271.779 197.405C266.197 203.325 258.289 207.027 249.501 207.027C233.697 207.027 220.689 195.053 219.062 179.68H279.94C279.94 179.68 279.94 179.704 279.94 179.716H307.86C307.92 178.631 307.956 177.534 307.956 176.437C307.956 160.834 301.88 146.16 290.85 135.115C279.819 124.083 265.148 118.006 249.537 118.006V117.994ZM224.378 159.038C229.899 151.14 239.049 145.967 249.417 145.967C259.784 145.967 268.934 151.14 274.455 159.038H224.378Z" fill="url(#paint4_linear_68538_367)"/>
<path d="M363.012 119.055C339.227 119.055 319.879 138.407 319.879 162.197V235H349.305V162.197C349.305 154.636 355.453 148.487 363.012 148.487C370.57 148.487 376.718 154.636 376.718 162.197V235H406.145V162.197C406.145 138.407 386.796 119.055 363.012 119.055Z" fill="url(#paint5_linear_68538_367)"/>
<defs>
<linearGradient id="paint0_linear_68538_367" x1="300.494" y1="104.731" x2="300.494" y2="486.822" gradientUnits="userSpaceOnUse">
<stop stop-color="#0BB8F2"/>
<stop offset="0.06" stop-color="#0BAFF3"/>
<stop offset="0.3" stop-color="#0D92F6"/>
<stop offset="0.54" stop-color="#0F7DF9"/>
<stop offset="0.78" stop-color="#1071FB"/>
<stop offset="1" stop-color="#116DFC"/>
</linearGradient>
<linearGradient id="paint1_linear_68538_367" x1="300.494" y1="104.731" x2="300.494" y2="486.822" gradientUnits="userSpaceOnUse">
<stop stop-color="#0BB8F2"/>
<stop offset="0.06" stop-color="#0BAFF3"/>
<stop offset="0.3" stop-color="#0D92F6"/>
<stop offset="0.54" stop-color="#0F7DF9"/>
<stop offset="0.78" stop-color="#1071FB"/>
<stop offset="1" stop-color="#116DFC"/>
</linearGradient>
<linearGradient id="paint2_linear_68538_367" x1="300.494" y1="104.73" x2="300.494" y2="486.822" gradientUnits="userSpaceOnUse">
<stop stop-color="#0BB8F2"/>
<stop offset="0.06" stop-color="#0BAFF3"/>
<stop offset="0.3" stop-color="#0D92F6"/>
<stop offset="0.54" stop-color="#0F7DF9"/>
<stop offset="0.78" stop-color="#1071FB"/>
<stop offset="1" stop-color="#116DFC"/>
</linearGradient>
<linearGradient id="paint3_linear_68538_367" x1="300.494" y1="104.731" x2="300.494" y2="486.822" gradientUnits="userSpaceOnUse">
<stop stop-color="#0BB8F2"/>
<stop offset="0.06" stop-color="#0BAFF3"/>
<stop offset="0.3" stop-color="#0D92F6"/>
<stop offset="0.54" stop-color="#0F7DF9"/>
<stop offset="0.78" stop-color="#1071FB"/>
<stop offset="1" stop-color="#116DFC"/>
</linearGradient>
<linearGradient id="paint4_linear_68538_367" x1="300.494" y1="104.73" x2="300.494" y2="486.822" gradientUnits="userSpaceOnUse">
<stop stop-color="#0BB8F2"/>
<stop offset="0.06" stop-color="#0BAFF3"/>
<stop offset="0.3" stop-color="#0D92F6"/>
<stop offset="0.54" stop-color="#0F7DF9"/>
<stop offset="0.78" stop-color="#1071FB"/>
<stop offset="1" stop-color="#116DFC"/>
</linearGradient>
<linearGradient id="paint5_linear_68538_367" x1="300.494" y1="104.73" x2="300.494" y2="486.822" gradientUnits="userSpaceOnUse">
<stop stop-color="#0BB8F2"/>
<stop offset="0.06" stop-color="#0BAFF3"/>
<stop offset="0.3" stop-color="#0D92F6"/>
<stop offset="0.54" stop-color="#0F7DF9"/>
<stop offset="0.78" stop-color="#1071FB"/>
<stop offset="1" stop-color="#116DFC"/>
</linearGradient>
</defs>
</svg>
