<svg width="600" height="300" viewBox="0 0 600 300" fill="none" xmlns="http://www.w3.org/2000/svg">
<path d="M189.098 72.0795C161.718 69.8052 158.443 116.808 154.169 150.913C149.895 185.028 133.854 214.99 109.935 184.006C90.103 158.318 91.3225 112.809 92.3114 97.9763C92.685 92.4608 91.1358 86.9342 87.7077 82.5943C82.4998 76.0019 76.0064 75.3867 76.0064 75.3867C38.9795 73.8045 48.9339 131.235 60.7012 161.702C72.4685 192.17 101.716 227.461 129.646 225.867C157.575 224.285 179.253 187.951 195.031 149.77C210.808 111.589 216.467 74.3429 189.087 72.0795H189.098Z" fill="white"/>
<path d="M427.96 86.7475C425.718 85.451 423.235 84.8027 420.521 84.8027C417.807 84.8027 415.357 85.451 413.171 86.7475C410.984 88.044 409.182 89.8459 407.765 92.1532C406.469 94.3946 405.82 96.8777 405.82 99.5915C405.82 102.305 406.502 104.755 407.853 107.118C409.149 109.359 410.918 111.161 413.171 112.523C415.357 113.82 417.807 114.468 420.521 114.468C423.235 114.468 425.718 113.787 427.96 112.436C430.201 111.073 431.97 109.304 433.277 107.118C434.574 104.931 435.222 102.426 435.222 99.5915C435.222 96.7568 434.574 94.3946 433.277 92.1532C431.915 89.8459 430.146 88.0549 427.96 86.7475Z" fill="white"/>
<path d="M407.446 227.834H433.552V122.082L407.446 122.17V227.834Z" fill="white"/>
<path d="M534.777 136.596C524.724 126.543 511.353 121.005 497.124 121.005C482.896 121.005 469.535 126.543 459.471 136.596C449.418 146.65 443.88 160.021 443.88 174.249C443.88 188.478 449.418 201.838 459.471 211.903C469.524 221.956 482.896 227.493 497.124 227.493C511.353 227.493 524.713 221.956 534.777 211.903C544.831 201.849 550.368 188.478 550.368 174.249C550.368 160.021 544.831 146.66 534.777 136.596ZM497.124 202.069C481.786 202.069 469.305 189.587 469.305 174.249C469.305 158.911 481.786 146.43 497.124 146.43C512.462 146.43 524.944 158.911 524.944 174.249C524.944 189.587 512.462 202.069 497.124 202.069Z" fill="white"/>
<path d="M253.747 121.204C239.529 121.204 226.158 126.741 216.093 136.794C206.04 146.848 200.503 160.219 200.503 174.448C200.503 188.676 206.04 202.036 216.093 212.101C226.147 222.165 239.518 227.692 253.747 227.692C266.777 227.692 279.083 223.044 288.796 214.529L274.018 193.565C268.931 198.96 261.723 202.333 253.714 202.333C239.309 202.333 227.454 191.423 225.971 177.414H281.456C281.456 177.414 281.456 177.436 281.456 177.447H306.903C306.958 176.458 306.991 175.458 306.991 174.459C306.991 160.241 301.453 146.87 291.4 136.805C281.346 126.752 267.975 121.215 253.747 121.215V121.204ZM230.816 158.604C235.848 151.407 244.188 146.694 253.637 146.694C263.086 146.694 271.425 151.407 276.457 158.604H230.816Z" fill="white"/>
<path d="M357.158 122.17C335.481 122.17 317.846 139.804 317.846 161.482V227.823H344.666V161.482C344.666 154.593 350.269 148.99 357.158 148.99C364.047 148.99 369.651 154.593 369.651 161.482V227.823H396.47V161.482C396.47 139.804 378.836 122.17 357.158 122.17Z" fill="white"/>
<path d="M189.098 72.0795C161.718 69.8052 158.443 116.808 154.169 150.913C149.895 185.028 133.854 214.99 109.935 184.006C90.103 158.318 91.3225 112.809 92.3114 97.9763C92.685 92.4608 91.1358 86.9342 87.7077 82.5943C82.4998 76.0019 76.0064 75.3867 76.0064 75.3867C38.9795 73.8045 48.9339 131.235 60.7012 161.702C72.4685 192.17 101.716 227.461 129.646 225.867C157.575 224.285 179.253 187.951 195.031 149.77C210.808 111.589 216.467 74.3429 189.087 72.0795H189.098Z" fill="white"/>
<path d="M427.96 86.7475C425.718 85.451 423.235 84.8027 420.521 84.8027C417.807 84.8027 415.357 85.451 413.171 86.7475C410.984 88.044 409.182 89.8459 407.765 92.1532C406.469 94.3946 405.82 96.8777 405.82 99.5915C405.82 102.305 406.502 104.755 407.853 107.118C409.149 109.359 410.918 111.161 413.171 112.523C415.357 113.82 417.807 114.468 420.521 114.468C423.235 114.468 425.718 113.787 427.96 112.436C430.201 111.073 431.97 109.304 433.277 107.118C434.574 104.931 435.222 102.426 435.222 99.5915C435.222 96.7568 434.574 94.3946 433.277 92.1532C431.915 89.8459 430.146 88.0549 427.96 86.7475Z" fill="white"/>
<path d="M407.446 227.834H433.552V122.082L407.446 122.17V227.834Z" fill="white"/>
<path d="M534.777 136.596C524.724 126.543 511.353 121.005 497.124 121.005C482.896 121.005 469.535 126.543 459.471 136.596C449.418 146.65 443.88 160.021 443.88 174.249C443.88 188.478 449.418 201.838 459.471 211.903C469.524 221.956 482.896 227.493 497.124 227.493C511.353 227.493 524.713 221.956 534.777 211.903C544.831 201.849 550.368 188.478 550.368 174.249C550.368 160.021 544.831 146.66 534.777 136.596ZM497.124 202.069C481.786 202.069 469.305 189.587 469.305 174.249C469.305 158.911 481.786 146.43 497.124 146.43C512.462 146.43 524.944 158.911 524.944 174.249C524.944 189.587 512.462 202.069 497.124 202.069Z" fill="white"/>
<path d="M253.747 121.204C239.529 121.204 226.158 126.741 216.093 136.794C206.04 146.848 200.503 160.219 200.503 174.448C200.503 188.676 206.04 202.036 216.093 212.101C226.147 222.165 239.518 227.692 253.747 227.692C266.777 227.692 279.083 223.044 288.796 214.529L274.018 193.565C268.931 198.96 261.723 202.333 253.714 202.333C239.309 202.333 227.454 191.423 225.971 177.414H281.456C281.456 177.414 281.456 177.436 281.456 177.447H306.903C306.958 176.458 306.991 175.458 306.991 174.459C306.991 160.241 301.453 146.87 291.4 136.805C281.346 126.752 267.975 121.215 253.747 121.215V121.204ZM230.816 158.604C235.848 151.407 244.188 146.694 253.637 146.694C263.086 146.694 271.425 151.407 276.457 158.604H230.816Z" fill="white"/>
<path d="M357.158 122.17C335.481 122.17 317.846 139.804 317.846 161.482V227.823H344.666V161.482C344.666 154.593 350.269 148.99 357.158 148.99C364.047 148.99 369.651 154.593 369.651 161.482V227.823H396.47V161.482C396.47 139.804 378.836 122.17 357.158 122.17Z" fill="white"/>
</svg>
