<svg width="300" height="300" viewBox="0 0 300 300" fill="none" xmlns="http://www.w3.org/2000/svg">
<path d="M150.996 221.396C141.035 223.213 131.572 212.344 126.387 203.32C112.559 179.209 105.147 149.824 107.11 122.051C107.783 112.529 109.131 104.355 103.858 95.7713C95.1272 81.6209 76.9631 78.8377 65.5373 91.4061C52.6174 105.615 57.0705 129.961 60.7326 146.865C65.3908 168.369 74.883 188.32 88.6233 205.547C96.6799 215.654 106.026 224.707 116.192 232.646C125.537 239.912 137.432 243.867 149.268 243.457C170.596 242.695 186.475 227.842 198.779 211.758C213.692 192.275 225.235 170.039 233.496 146.982C233.672 146.484 233.848 146.015 234.024 145.517C239.795 129.14 249.551 105.498 237.598 89.619C236.895 88.6815 236.133 87.8026 235.313 86.9823C232.998 84.6971 230.156 82.9979 227.11 81.9432C215.449 77.8709 201.856 83.3202 195.967 94.1014C191.074 103.096 189.053 113.613 186.885 123.545C183.076 140.947 180.762 159.14 176.338 176.601C173.115 189.316 169.102 206.396 159.756 216.211C156.826 219.258 153.897 220.869 150.996 221.396Z" fill="url(#paint0_linear_68538_365)"/>
<defs>
<linearGradient id="paint0_linear_68538_365" x1="351.54" y1="119.874" x2="351.54" y2="488.347" gradientUnits="userSpaceOnUse">
<stop stop-color="#0BB8F2"/>
<stop offset="0.06" stop-color="#0BAFF3"/>
<stop offset="0.3" stop-color="#0D92F6"/>
<stop offset="0.54" stop-color="#0F7DF9"/>
<stop offset="0.78" stop-color="#1071FB"/>
<stop offset="1" stop-color="#116DFC"/>
</linearGradient>
</defs>
</svg>
