<svg width="140" height="40" viewBox="0 0 140 40" fill="none" xmlns="http://www.w3.org/2000/svg">
<path d="M29.2747 38.9411C29.2747 39.8827 30.553 40 31.25 40H31.8312C33.5738 39.8839 33.5738 39.1768 33.5738 38.9411V1.05886C33.6885 0.116104 32.4113 0 31.5985 0H31.2545C30.5529 0 29.2747 0.116104 29.2747 1.05886V38.9411Z" fill="#E1091D"/>
<path d="M5.92479 38.9411C5.92479 39.8827 7.20309 40 7.90012 40H8.48143C10.224 39.8839 10.224 39.1768 10.224 38.9411V1.05886C10.224 0.116104 9.06151 0 8.24867 0H7.90473C7.08619 0 5.92479 0.116104 5.92479 1.05886V38.9411Z" fill="#E1091D"/>
<path d="M13.708 38.9411C13.708 39.8827 14.9864 40 15.6834 40H16.3804C18.1231 39.8839 18.1231 39.1768 18.1231 38.9411V1.05886C18.1231 0.116104 16.8448 0 16.1478 0H15.6834C14.9864 0 13.708 0.116104 13.708 1.05886V38.9411Z" fill="#E1091D"/>
<path d="M21.4912 38.9411C21.4912 39.8827 22.7695 40 23.4666 40H24.0478C25.7904 39.8839 25.7904 39.1768 25.7904 38.9411V1.05886C25.7904 0.116104 24.5121 0 23.8151 0H23.4712C22.7695 0 21.4912 0.116104 21.4912 1.05886V38.9411Z" fill="#E1091D"/>
<path d="M1.04556 17.7653C0.114662 17.7653 0 19.0598 0 19.7657V20.4716C0.11466 22.2364 0.812842 22.2364 1.04556 22.2364H38.4521C39.3818 22.2364 39.4976 20.9419 39.4976 20.2359V19.7657C39.4976 19.0598 39.383 17.7653 38.4521 17.7653H1.04556Z" fill="#E1091D"/>
<path d="M93.9806 31.9991C87.8241 31.9991 85.4968 28.5868 85.4968 19.7641C85.4968 11.0563 87.7037 7.88204 93.8659 7.88204H94.0952C100.136 7.88204 102.464 11.0586 102.464 19.7641C102.35 28.588 100.025 31.9991 93.9806 31.9991ZM93.9806 2.94067C83.5249 2.94067 78.7626 8.235 78.7626 19.8813C78.7626 31.4104 83.6418 36.9404 93.632 37.0577H94.0964C104.203 37.0577 109.082 31.4104 109.082 19.8813C109.082 8.11657 104.436 2.94067 93.9806 2.94067Z" fill="#002469"/>
<path d="M51.8115 34.4705C53.9027 36.118 56.8066 36.8239 61.4532 36.8239H61.6825C66.329 36.8239 69.233 36.118 71.4411 34.4705C74.4609 32.1183 75.0455 29.3004 75.0455 24.0003V4.82463C75.0596 4.65177 75.0361 4.47787 74.9767 4.31518C74.9173 4.1525 74.8234 4.00498 74.7016 3.88303C74.2315 3.40933 73.186 3.17712 71.4434 3.17712C70.3486 3.03555 69.2393 3.2852 68.3067 3.88303C68.1849 4.00498 68.091 4.15249 68.0316 4.31518C67.9722 4.47786 67.9486 4.65176 67.9627 4.82463V24.8246C67.9627 28.1185 67.9628 28.8244 66.4529 30.119C64.9608 31.0648 63.2151 31.5173 61.4577 31.4135C59.6943 31.5737 57.9302 31.1145 56.4615 30.1131C54.9516 28.937 54.9516 28.2311 54.9516 24.9373V4.82463C54.9657 4.65176 54.9423 4.47786 54.8828 4.31518C54.8234 4.15249 54.7295 4.00498 54.6077 3.88303C53.6729 3.28333 52.5604 3.03361 51.463 3.17712C50.3682 3.03555 49.2589 3.2852 48.3263 3.88303C48.2045 4.00498 48.1106 4.15249 48.0512 4.31518C47.9917 4.47786 47.9683 4.65176 47.9824 4.82463V24.0003C48.2117 29.2946 48.6794 32.1183 51.8161 34.4705" fill="#002469"/>
<path d="M127.088 31.8835H119.653V21.8835H127.552C131.967 21.8835 132.78 23.7656 132.78 26.9421C132.895 31.1776 131.386 31.8835 127.088 31.8835ZM119.653 8.00101H127.204C131.153 8.00101 131.386 10.0015 131.386 12.5894C131.386 15.766 129.992 17.0594 126.623 17.0594H119.653V8.00101ZM135.336 5.17737C133.594 3.88282 131.503 3.4126 127.437 3.4126H113.961C113.653 3.41321 113.358 3.53732 113.14 3.75775C112.923 3.97819 112.8 4.27698 112.799 4.58873V35.6476C112.8 35.9593 112.923 36.2581 113.14 36.4786C113.358 36.699 113.653 36.8231 113.961 36.8237H128.133C131.967 36.8237 134.638 36.7076 136.961 34.9417C139.516 32.9412 139.982 29.7658 139.982 27.4124C140.067 26.1061 139.849 24.7978 139.345 23.5925C138.84 22.3871 138.064 21.3183 137.078 20.4717C136.247 19.9234 135.349 19.4881 134.406 19.1771L133.824 18.9449L134.406 18.7127C137.194 17.4182 138.124 15.5361 138.124 11.8893C138.009 10.0073 137.659 6.83069 135.335 5.18318" fill="#002469"/>
</svg>
